<svg width="450" height="450" viewBox="0 0 450 450" xmlns="http://www.w3.org/2000/svg"><g transform="translate(114 53)" fill="#FFF"><path d="M53.7475,248.75 L136.4975,248.75 L136.4975,51.75 L53.7475,51.75 C53.7475,95.5233333 53.7475,161.19 53.7475,248.75 Z M178.2375,10 L178.2475,227.75 L190.4975,227.75 L190.5,186.25 L211.4975,186.25 L211.5,228.246122 L201.2475,228.25 L201.2475,248.75 L211.5,248.74 L211.4975,290.736122 L190.5075,290.736122 C190.514167,272.298707 190.510833,258.47 190.4975,249.25 C187.770833,249.243333 183.6875,249.243333 178.2475,249.25 L178.2375,290.74 L167.6775,290.74 L167.6775,249.02 L177.9275,249.01 L177.9275,228.21 L167.6775,228.2 L167.6775,186.56 L146.8475,186.56 L146.85,228.16 L157.05,228.15 L157.05,249.06 L146.85,249.05 L146.8475,290.74 L12,290.74 L12,10 L178.2375,10 Z"/><g transform="translate(13 317)"><polygon points="0 0.38 2.27 0.38 9.66 20.35 17.34 0.38 19.58 0.38 9.63 25.82"/><polygon points="29.28 0.38 40.9 0.38 40.9 2.4 31.36 2.4 31.36 10.56 40.64 10.56 40.64 12.51 31.36 12.51 31.36 22.84 40.99 22.84 40.99 24.89 29.28 24.89"/><polygon points="54.24 24.89 52.16 24.89 52.16 0.19 71.33 20.44 71.33 0.38 73.24 0.38 73.24 25.34 54.24 5.12"/><polygon points="91.13 2.4 91.13 24.89 89.05 24.89 89.05 2.4 82.94 2.4 82.94 0.38 97.24 0.38 97.24 2.4"/><path d="M122.17 17.72C122.17 16.06 122.17.38 122.17.38L124.25.38C124.25.38 124.25 11.8 124.25 17.72 124.25 22.39 120.6 25.4 115.48 25.4 110.52 25.4 106.9 22.42 106.9 17.66 106.9 11.74 106.9.38 106.9.38L108.98.38C108.98.38 108.98 11.99 108.98 17.66 108.98 21.28 111.57 23.39 115.7 23.39 119.45 23.39 122.17 21.24 122.17 17.72ZM138.69 12.35 138.69 24.89 136.61 24.89 136.61.38C136.61.38 140.13.38 142.18.38 146.15.38 148.77 3.26 148.77 6.81 148.77 10.52 146.11 13.31 142.21 13.31 143.52 14.78 152.58 24.89 152.58 24.89L149.89 24.89 138.69 12.35ZM138.69 2.3 138.69 11.58 141.99 11.58C145.22 11.58 146.66 9.31 146.66 6.88 146.66 3.62 144.45 2.3 141.89 2.3L138.69 2.3 138.69 2.3Z"/><polygon points="161.24 0.38 172.86 0.38 172.86 2.4 163.32 2.4 163.32 10.56 172.6 10.56 172.6 12.51 163.32 12.51 163.32 22.84 172.95 22.84 172.95 24.89 161.24 24.89"/><path d="M183.42,6.27 C183.42,2.49 186.65,0 190.3,0 C193.31,0 195.58,1.54 197.12,3.71 L195.46,4.86 C194.37,3.2 192.64,1.92 190.34,1.92 C187.3,1.92 185.51,3.78 185.51,6.27 C185.51,9.15 187.69,9.89 191.97,11.2 C195.27,12.22 198.31,13.98 198.31,18.14 C198.31,22.4 194.76,25.34 190.18,25.34 C186.31,25.34 183.84,23.39 181.96,19.77 C181.96,19.77 183.05,19.19 183.82,18.84 C184.91,21.21 186.8,23.35 190.16,23.35 C193.97,23.35 196.18,21.3 196.18,18.17 C196.18,15.23 194.36,13.98 190.8,12.95 C187,11.87 183.42,10.65 183.42,6.27 Z"/></g></g></svg>