<?xml version="1.0" encoding="UTF-8"?>
<svg width="450px" height="450px" viewBox="0 0 450 450" version="1.1" xmlns="http://www.w3.org/2000/svg" xmlns:xlink="http://www.w3.org/1999/xlink">
    <title>0x_Logo_Transparent</title>
    <defs>
        <path d="M54.7475,248.753878 L137.4975,248.753878 L137.4975,51.753878 L54.7475,51.753878 C54.7475,95.5272113 54.7475,161.193878 54.7475,248.753878 Z M179.2375,10.003878 L179.2475,227.753878 L191.4975,227.753878 L191.5,186.253878 L212.4975,186.253878 L212.5,228.25 L202.2475,228.253878 L202.2475,248.753878 L212.5,248.743878 L212.4975,290.74 L191.5075,290.74 C191.514167,272.302585 191.510833,258.473878 191.4975,249.253878 C188.770833,249.247211 184.6875,249.247211 179.2475,249.253878 L179.2375,290.743878 L168.6775,290.743878 L168.6775,249.023878 L178.9275,249.013878 L178.9275,228.213878 L168.6775,228.203878 L168.6775,186.563878 L147.8475,186.563878 L147.85,228.163878 L158.05,228.153878 L158.05,249.063878 L147.85,249.053878 L147.8475,290.743878 L13,290.743878 L13,10.003878 L179.2375,10.003878 Z" id="path-1"></path>
        <filter x="-6.0%" y="-2.1%" width="109.0%" height="106.4%" filterUnits="objectBoundingBox" id="filter-2">
            <feOffset dx="-3" dy="3" in="SourceAlpha" result="shadowOffsetOuter1"></feOffset>
            <feGaussianBlur stdDeviation="2.5" in="shadowOffsetOuter1" result="shadowBlurOuter1"></feGaussianBlur>
            <feColorMatrix values="0 0 0 0 0   0 0 0 0 0   0 0 0 0 0  0 0 0 0.25 0" type="matrix" in="shadowBlurOuter1"></feColorMatrix>
        </filter>
        <polygon id="path-3" points="0 0.38 2.27 0.38 9.66 20.35 17.34 0.38 19.58 0.38 9.63 25.82"></polygon>
        <filter x="-30.6%" y="-7.9%" width="140.9%" height="131.4%" filterUnits="objectBoundingBox" id="filter-4">
            <feOffset dx="-2" dy="2" in="SourceAlpha" result="shadowOffsetOuter1"></feOffset>
            <feGaussianBlur stdDeviation="1" in="shadowOffsetOuter1" result="shadowBlurOuter1"></feGaussianBlur>
            <feColorMatrix values="0 0 0 0 0   0 0 0 0 0   0 0 0 0 0  0 0 0 0.25 0" type="matrix" in="shadowBlurOuter1"></feColorMatrix>
        </filter>
        <polygon id="path-5" points="29.28 0.38 40.9 0.38 40.9 2.4 31.36 2.4 31.36 10.56 40.64 10.56 40.64 12.51 31.36 12.51 31.36 22.84 40.99 22.84 40.99 24.89 29.28 24.89"></polygon>
        <filter x="-51.2%" y="-8.2%" width="168.3%" height="132.6%" filterUnits="objectBoundingBox" id="filter-6">
            <feOffset dx="-2" dy="2" in="SourceAlpha" result="shadowOffsetOuter1"></feOffset>
            <feGaussianBlur stdDeviation="1" in="shadowOffsetOuter1" result="shadowBlurOuter1"></feGaussianBlur>
            <feColorMatrix values="0 0 0 0 0   0 0 0 0 0   0 0 0 0 0  0 0 0 0.25 0" type="matrix" in="shadowBlurOuter1"></feColorMatrix>
        </filter>
        <polygon id="path-7" points="54.24 24.89 52.16 24.89 52.16 0.19 71.33 20.44 71.33 0.38 73.24 0.38 73.24 25.34 54.24 5.12"></polygon>
        <filter x="-28.5%" y="-8.0%" width="138.0%" height="131.8%" filterUnits="objectBoundingBox" id="filter-8">
            <feOffset dx="-2" dy="2" in="SourceAlpha" result="shadowOffsetOuter1"></feOffset>
            <feGaussianBlur stdDeviation="1" in="shadowOffsetOuter1" result="shadowBlurOuter1"></feGaussianBlur>
            <feColorMatrix values="0 0 0 0 0   0 0 0 0 0   0 0 0 0 0  0 0 0 0.25 0" type="matrix" in="shadowBlurOuter1"></feColorMatrix>
        </filter>
        <polygon id="path-9" points="91.13 2.4 91.13 24.89 89.05 24.89 89.05 2.4 82.94 2.4 82.94 0.38 97.24 0.38 97.24 2.4"></polygon>
        <filter x="-42.0%" y="-8.2%" width="155.9%" height="132.6%" filterUnits="objectBoundingBox" id="filter-10">
            <feOffset dx="-2" dy="2" in="SourceAlpha" result="shadowOffsetOuter1"></feOffset>
            <feGaussianBlur stdDeviation="1" in="shadowOffsetOuter1" result="shadowBlurOuter1"></feGaussianBlur>
            <feColorMatrix values="0 0 0 0 0   0 0 0 0 0   0 0 0 0 0  0 0 0 0.25 0" type="matrix" in="shadowBlurOuter1"></feColorMatrix>
        </filter>
        <path d="M122.17,17.72 C122.17,16.06 122.17,0.38 122.17,0.38 L124.25,0.38 C124.25,0.38 124.25,11.8 124.25,17.72 C124.25,22.39 120.6,25.4 115.48,25.4 C110.52,25.4 106.9,22.42 106.9,17.66 C106.9,11.74 106.9,0.38 106.9,0.38 L108.98,0.38 C108.98,0.38 108.98,11.99 108.98,17.66 C108.98,21.28 111.57,23.39 115.7,23.39 C119.45,23.39 122.17,21.24 122.17,17.72 Z" id="path-11"></path>
        <filter x="-34.6%" y="-8.0%" width="146.1%" height="132.0%" filterUnits="objectBoundingBox" id="filter-12">
            <feOffset dx="-2" dy="2" in="SourceAlpha" result="shadowOffsetOuter1"></feOffset>
            <feGaussianBlur stdDeviation="1" in="shadowOffsetOuter1" result="shadowBlurOuter1"></feGaussianBlur>
            <feColorMatrix values="0 0 0 0 0   0 0 0 0 0   0 0 0 0 0  0 0 0 0.25 0" type="matrix" in="shadowBlurOuter1"></feColorMatrix>
        </filter>
        <path d="M138.69,12.35 L138.69,24.89 L136.61,24.89 L136.61,0.38 C136.61,0.38 140.13,0.38 142.18,0.38 C146.15,0.38 148.77,3.26 148.77,6.81 C148.77,10.52 146.11,13.31 142.21,13.31 C143.52,14.78 152.58,24.89 152.58,24.89 L149.89,24.89 L138.69,12.35 Z M138.69,2.3 L138.69,11.58 L141.99,11.58 C145.22,11.58 146.66,9.31 146.66,6.88 C146.66,3.62 144.45,2.3 141.89,2.3 L138.69,2.3 L138.69,2.3 Z" id="path-13"></path>
        <filter x="-37.6%" y="-8.2%" width="150.1%" height="132.6%" filterUnits="objectBoundingBox" id="filter-14">
            <feOffset dx="-2" dy="2" in="SourceAlpha" result="shadowOffsetOuter1"></feOffset>
            <feGaussianBlur stdDeviation="1" in="shadowOffsetOuter1" result="shadowBlurOuter1"></feGaussianBlur>
            <feColorMatrix values="0 0 0 0 0   0 0 0 0 0   0 0 0 0 0  0 0 0 0.25 0" type="matrix" in="shadowBlurOuter1"></feColorMatrix>
        </filter>
        <polygon id="path-15" points="161.24 0.38 172.86 0.38 172.86 2.4 163.32 2.4 163.32 10.56 172.6 10.56 172.6 12.51 163.32 12.51 163.32 22.84 172.95 22.84 172.95 24.89 161.24 24.89"></polygon>
        <filter x="-51.2%" y="-8.2%" width="168.3%" height="132.6%" filterUnits="objectBoundingBox" id="filter-16">
            <feOffset dx="-2" dy="2" in="SourceAlpha" result="shadowOffsetOuter1"></feOffset>
            <feGaussianBlur stdDeviation="1" in="shadowOffsetOuter1" result="shadowBlurOuter1"></feGaussianBlur>
            <feColorMatrix values="0 0 0 0 0   0 0 0 0 0   0 0 0 0 0  0 0 0 0.25 0" type="matrix" in="shadowBlurOuter1"></feColorMatrix>
        </filter>
        <path d="M183.42,6.27 C183.42,2.49 186.65,0 190.3,0 C193.31,0 195.58,1.54 197.12,3.71 L195.46,4.86 C194.37,3.2 192.64,1.92 190.34,1.92 C187.3,1.92 185.51,3.78 185.51,6.27 C185.51,9.15 187.69,9.89 191.97,11.2 C195.27,12.22 198.31,13.98 198.31,18.14 C198.31,22.4 194.76,25.34 190.18,25.34 C186.31,25.34 183.84,23.39 181.96,19.77 C181.96,19.77 183.05,19.19 183.82,18.84 C184.91,21.21 186.8,23.35 190.16,23.35 C193.97,23.35 196.18,21.3 196.18,18.17 C196.18,15.23 194.36,13.98 190.8,12.95 C187,11.87 183.42,10.65 183.42,6.27 Z" id="path-17"></path>
        <filter x="-36.7%" y="-7.9%" width="148.9%" height="131.6%" filterUnits="objectBoundingBox" id="filter-18">
            <feOffset dx="-2" dy="2" in="SourceAlpha" result="shadowOffsetOuter1"></feOffset>
            <feGaussianBlur stdDeviation="1" in="shadowOffsetOuter1" result="shadowBlurOuter1"></feGaussianBlur>
            <feColorMatrix values="0 0 0 0 0   0 0 0 0 0   0 0 0 0 0  0 0 0 0.25 0" type="matrix" in="shadowBlurOuter1"></feColorMatrix>
        </filter>
    </defs>
    <g id="0x_Logo_Transparent" stroke="none" stroke-width="1" fill="none" fill-rule="evenodd">
        <g id="Group" transform="translate(114.000000, 53.000000)" fill-rule="nonzero">
            <g>
                <g id="Shape">
                    <use fill="black" fill-opacity="1" filter="url(#filter-2)" xlink:href="#path-1"></use>
                    <use fill="#C58252" xlink:href="#path-1"></use>
                </g>
                <g transform="translate(11.000000, 315.000000)">
                    <g transform="translate(2.000000, 2.000000)">
                        <g id="Path">
                            <use fill="black" fill-opacity="1" filter="url(#filter-4)" xlink:href="#path-3"></use>
                            <use fill="#C58252" xlink:href="#path-3"></use>
                        </g>
                        <g id="Path">
                            <use fill="black" fill-opacity="1" filter="url(#filter-6)" xlink:href="#path-5"></use>
                            <use fill="#C58252" xlink:href="#path-5"></use>
                        </g>
                        <g id="Path">
                            <use fill="black" fill-opacity="1" filter="url(#filter-8)" xlink:href="#path-7"></use>
                            <use fill="#C58252" xlink:href="#path-7"></use>
                        </g>
                        <g id="Path">
                            <use fill="black" fill-opacity="1" filter="url(#filter-10)" xlink:href="#path-9"></use>
                            <use fill="#C58252" xlink:href="#path-9"></use>
                        </g>
                        <g id="Path">
                            <use fill="black" fill-opacity="1" filter="url(#filter-12)" xlink:href="#path-11"></use>
                            <use fill="#C58252" xlink:href="#path-11"></use>
                        </g>
                        <g id="Shape">
                            <use fill="black" fill-opacity="1" filter="url(#filter-14)" xlink:href="#path-13"></use>
                            <use fill="#C58252" xlink:href="#path-13"></use>
                        </g>
                        <g id="Path">
                            <use fill="black" fill-opacity="1" filter="url(#filter-16)" xlink:href="#path-15"></use>
                            <use fill="#C58252" xlink:href="#path-15"></use>
                        </g>
                        <g id="Path">
                            <use fill="black" fill-opacity="1" filter="url(#filter-18)" xlink:href="#path-17"></use>
                            <use fill="#C58252" xlink:href="#path-17"></use>
                        </g>
                    </g>
                </g>
            </g>
        </g>
    </g>
</svg>